<svg width="40" height="40" viewBox="0 0 40 40" fill="none" xmlns="http://www.w3.org/2000/svg">
<rect width="40" height="40" rx="8.35681" fill="#F2542D"/>
<path d="M23.4759 13.7155V21.1037C23.4759 22.7651 23.0605 24.0228 22.2299 24.8768C21.4109 25.7192 20.2351 26.1404 18.7024 26.1404C17.8016 26.1404 17.006 25.9825 16.3157 25.6666C15.6372 25.339 15.1165 24.8944 14.7539 24.3328C14.3795 24.8944 13.8588 25.339 13.192 25.6666C12.5251 25.9825 11.7354 26.1404 10.8228 26.1404C9.29018 26.1404 8.11437 25.7192 7.29541 24.8768C6.47644 24.0228 6.06696 22.7651 6.06696 21.1037V13.7155H7.82189V21.0511C7.82189 23.4027 8.8222 24.5785 10.8228 24.5785C11.7939 24.5785 12.5485 24.2919 13.0867 23.7186C13.6249 23.1453 13.8939 22.2562 13.8939 21.0511V13.7155H15.6489V21.0511C15.6489 22.2562 15.9121 23.1453 16.4386 23.7186C16.9768 24.2919 17.7314 24.5785 18.7024 24.5785C20.7148 24.5785 21.7209 23.4027 21.7209 21.0511V13.7155H23.4759ZM31.9071 15.137C30.7839 15.137 29.9357 15.3944 29.3624 15.9092C28.8008 16.4122 28.52 17.1493 28.52 18.1204V19.5243H34.1358V21.0335H28.52V26H26.7651V18.1028C26.7651 16.6872 27.2097 15.5816 28.0989 14.786C28.9997 13.9787 30.2516 13.5751 31.8544 13.5751C32.5564 13.5751 33.2116 13.657 33.8199 13.8208C34.4283 13.9729 34.9548 14.201 35.3994 14.5052L34.8202 15.9618C34.0364 15.4119 33.0653 15.137 31.9071 15.137Z" fill="#F2F4F3"/>
</svg>
